<svg id="Layer_1" data-name="Layer 1" xmlns="http://www.w3.org/2000/svg" viewBox="0 0 392.17 73.69"><path d="M53.92,250.71c0-20.61,14.28-36.84,39.27-36.84s38.68,16.23,38.68,36.84-13.68,36.84-38.68,36.84S53.92,271.32,53.92,250.71Z" transform="translate(-53.92 -213.87)"/><path d="M211,250.71c0-20.61,14.28-36.84,39.28-36.84S289,230.1,289,250.71s-13.69,36.84-38.68,36.84S211,271.32,211,250.71Z" transform="translate(-53.92 -213.87)"/><path d="M368.12,250.71c0-20.61,14.29-36.84,39.28-36.84s38.68,16.23,38.68,36.84-13.68,36.84-38.68,36.84S368.12,271.32,368.12,250.71Z" transform="translate(-53.92 -213.87)"/></svg>