<?xml version="1.0" standalone="no"?>
<!DOCTYPE svg PUBLIC "-//W3C//DTD SVG 20010904//EN"
 "http://www.w3.org/TR/2001/REC-SVG-20010904/DTD/svg10.dtd">
<svg version="1.0" xmlns="http://www.w3.org/2000/svg"
 width="900.000000pt" height="900.000000pt" viewBox="0 0 900.000000 900.000000"
 preserveAspectRatio="xMidYMid meet">
<metadata>
Created by potrace 1.10, written by Peter Selinger 2001-2011
</metadata>
<g transform="translate(0.000000,900.000000) scale(0.100000,-0.100000)"
fill="#000000" stroke="none">
<path d="M282 7163 c-19 -16 -23 -29 -24 -84 -2 -104 20 -130 123 -148 88 -16
182 -43 226 -66 62 -31 82 -58 203 -265 21 -35 111 -222 218 -450 21 -47 60
-128 85 -180 24 -52 66 -140 92 -195 26 -55 64 -136 85 -180 21 -44 56 -118
78 -165 36 -77 72 -154 182 -385 21 -44 56 -119 79 -167 23 -49 59 -127 82
-175 23 -49 58 -124 79 -168 21 -44 61 -129 90 -190 29 -60 69 -146 90 -190
98 -206 153 -323 178 -378 68 -149 119 -242 142 -259 30 -22 136 -34 204 -24
59 9 90 36 159 138 31 46 81 119 112 163 31 44 71 103 90 130 19 28 74 109
124 180 50 72 111 159 135 195 25 36 86 124 135 195 50 72 115 166 145 211 31
44 64 89 75 98 22 20 17 29 136 -229 13 -27 46 -99 75 -160 28 -60 60 -128 70
-150 10 -22 38 -83 63 -135 67 -143 112 -237 147 -315 18 -38 50 -107 71 -153
22 -45 39 -86 39 -90 0 -4 13 -22 29 -39 23 -25 39 -33 85 -38 84 -11 177 2
209 28 16 13 90 149 191 347 178 353 330 650 520 1025 68 132 199 391 293 575
537 1055 492 969 587 1122 82 131 167 229 245 283 25 17 80 42 125 56 l80 26
18 54 c22 63 16 121 -14 151 -17 17 -29 19 -67 14 -25 -3 -140 -10 -254 -17
-196 -10 -496 -3 -658 17 -39 5 -50 2 -75 -19 -28 -24 -29 -29 -28 -106 0 -45
5 -86 10 -91 5 -5 49 -17 97 -27 187 -36 228 -140 145 -363 -14 -36 -137 -282
-561 -1120 -135 -267 -282 -560 -328 -652 -46 -93 -88 -168 -94 -168 -10 0
-41 62 -258 510 -52 107 -133 275 -181 372 -47 98 -86 186 -86 197 0 17 50 94
227 349 32 46 65 94 73 107 8 13 39 59 69 102 30 43 81 119 114 168 217 321
357 461 504 501 57 16 63 20 78 56 8 21 15 61 15 89 0 65 -32 103 -82 95 -120
-19 -414 -27 -630 -17 -128 7 -248 14 -266 17 -53 10 -90 -12 -103 -60 -11
-41 -5 -144 9 -158 4 -4 48 -15 97 -23 119 -21 120 -21 160 -62 32 -33 35 -41
35 -95 0 -88 -27 -139 -223 -425 -188 -273 -222 -317 -236 -308 -9 5 -188 364
-243 485 -11 25 -25 53 -30 64 -19 37 -38 112 -38 152 0 97 58 163 161 183 35
7 74 15 87 17 64 13 53 199 -13 224 -16 6 -85 6 -193 0 -431 -24 -944 -22
-1337 5 -69 5 -83 3 -105 -14 -21 -17 -24 -27 -24 -88 0 -91 17 -117 92 -138
125 -37 198 -91 273 -203 46 -67 159 -270 175 -312 3 -8 14 -33 24 -55 39 -85
92 -198 126 -272 20 -43 51 -109 69 -148 17 -38 43 -95 57 -125 47 -100 96
-204 128 -275 33 -71 89 -190 141 -300 48 -103 50 -95 -56 -240 -53 -71 -109
-148 -125 -170 -158 -218 -241 -332 -250 -342 -17 -20 -40 -15 -49 10 -8 20
-50 109 -151 322 -21 44 -61 130 -90 190 -28 61 -67 142 -85 180 -61 128 -186
391 -264 558 -93 198 -125 267 -168 357 -25 52 -61 129 -80 170 -52 110 -154
322 -164 342 -21 42 -49 136 -49 168 0 74 57 122 164 141 107 18 106 17 106
105 0 93 -16 129 -62 138 -18 3 -100 2 -183 -3 -379 -24 -1041 -22 -1405 5
-63 4 -79 2 -98 -13z"/>
<path d="M6935 5554 c-88 -13 -165 -27 -255 -45 -25 -5 -76 -18 -115 -29 -38
-12 -83 -25 -100 -30 -102 -30 -268 -105 -380 -173 -44 -26 -89 -54 -100 -60
-192 -116 -474 -413 -609 -642 -26 -44 -51 -87 -56 -95 -6 -8 -13 -22 -16 -30
-3 -8 -19 -43 -35 -77 -16 -35 -29 -67 -29 -72 0 -6 -6 -25 -14 -43 -8 -18
-21 -58 -29 -88 -89 -316 -98 -593 -31 -890 37 -164 48 -196 109 -344 80 -193
200 -370 355 -526 64 -65 308 -260 325 -260 3 0 22 -11 43 -23 71 -45 250
-132 328 -160 274 -98 465 -137 780 -156 320 -20 611 15 929 114 47 14 132 39
191 54 70 18 267 51 310 51 52 0 64 13 64 75 0 27 6 97 15 155 15 107 32 245
60 475 9 72 23 180 31 240 9 61 14 130 12 155 -4 56 -27 70 -116 70 -57 0 -67
-3 -93 -29 -16 -16 -29 -40 -29 -53 0 -13 -7 -32 -15 -42 -8 -11 -15 -26 -15
-33 0 -16 -99 -221 -140 -288 -16 -27 -33 -57 -37 -65 -4 -8 -26 -42 -50 -75
-24 -33 -51 -71 -61 -85 -9 -13 -42 -54 -73 -90 -179 -208 -343 -306 -604
-361 -83 -18 -123 -20 -250 -17 -144 5 -185 11 -305 46 -176 51 -335 168 -440
322 -39 58 -118 215 -145 290 -26 73 -75 242 -82 280 -2 14 -10 59 -18 100
-31 167 -40 290 -40 580 0 386 20 548 102 840 40 142 119 322 180 412 120 177
248 274 443 336 123 38 215 52 348 52 282 -1 496 -94 713 -310 186 -185 304
-375 383 -615 9 -27 16 -62 16 -77 0 -46 41 -68 124 -68 100 0 116 13 116 93
0 34 -6 136 -14 227 -21 223 -38 492 -45 685 l-6 160 -90 6 c-97 7 -257 31
-327 49 -165 44 -253 62 -409 84 -140 21 -670 21 -804 0z"/>
</g>
</svg>
